<!--suppress ALL -->
<svg xmlns="http://www.w3.org/2000/svg" version="1.1" width="1920" height="1080" preserveAspectRatio="none"
     viewBox="0 0 1920 1080">
  <g mask="url(&quot;#SvgjsMask2805&quot;)" fill="none">
    <rect width="1920" height="1080" x="0" y="0" fill="url(#SvgjsRadialGradient2806)"></rect>
    <path d="M1920 0L1438.37 0L1920 228.99z" fill="rgba(255, 255, 255, .1)"></path>
    <path d="M1438.37 0L1920 228.99L1920 422.58000000000004L924.5799999999999 0z"
          fill="rgba(255, 255, 255, .075)"></path>
    <path d="M924.58 0L1920 422.58000000000004L1920 519.9000000000001L412.1 0z" fill="rgba(255, 255, 255, .05)"></path>
    <path d="M412.0999999999999 0L1920 519.9000000000001L1920 845.6000000000001L170.5499999999999 0z"
          fill="rgba(255, 255, 255, .025)"></path>
    <path d="M0 1080L401.65 1080L0 794.3399999999999z" fill="rgba(0, 0, 0, .1)"></path>
    <path d="M0 794.3399999999999L401.65 1080L450.2 1080L0 481.99999999999994z" fill="rgba(0, 0, 0, .075)"></path>
    <path d="M0 482L450.2 1080L1342.2 1080L0 251.11z" fill="rgba(0, 0, 0, .05)"></path>
    <path d="M0 251.11L1342.2 1080L1616.51 1080L0 190.99z" fill="rgba(0, 0, 0, .025)"></path>
  </g>
  <defs>
    <mask id="SvgjsMask2805">
      <rect width="1920" height="1080" fill="#ffffff"></rect>
    </mask>
    <radialGradient cx="50%" cy="50%" r="1101.45" gradientUnits="userSpaceOnUse" id="SvgjsRadialGradient2806">
      <stop stop-color="rgba(212, 212, 212, 1)" offset="0"></stop>
      <stop stop-color="rgba(33, 33, 33, 1)" offset="1"></stop>
    </radialGradient>
  </defs>
</svg>
