<svg xmlns="http://www.w3.org/2000/svg" version="1.1"
     width="1920" height="1080" preserveAspectRatio="xMinYMid slice"
     viewBox="0 0 1920 1080">
  <g mask="url(&quot;#SvgjsMask1239&quot;)" fill="none">
    <rect width="1920" height="1080" x="0" y="0" fill="rgba(26, 26, 26, 1)"></rect>
    <path
      d="M0,935.897C172.695,931.97,317.419,810.327,448.358,697.659C565.974,596.455,670.405,474.377,710.547,324.496C747.73,185.665,673.256,48.183,660.651,-94.987C647.079,-249.148,704.979,-411.718,633.64,-549.052C555.633,-699.222,417.685,-822,256.398,-873.211C93.797,-924.839,-78.333,-872.203,-242.94,-827.379C-410.526,-781.744,-608.145,-755.15,-705.461,-611.285C-802.067,-468.471,-719.953,-277.205,-731.474,-105.17C-741.895,50.443,-818.504,203.412,-769.945,351.622C-719.195,506.52,-591.503,619.818,-461.657,718.352C-323.341,823.313,-173.587,939.844,0,935.897"
      fill="#151515"></path>
    <path
      d="M1920 1656.2089999999998C2027.324 1671.079 2126.516 1601.7530000000002 2217.821 1543.4189999999999 2309.328 1484.955 2393.603 1415.333 2445.939 1320.188 2500.842 1220.377 2552.011 1103.087 2520.2 993.704 2488.939 886.213 2368.832 837.717 2284.287 764.3430000000001 2212.674 702.192 2153.26 622.1469999999999 2062.081 596.117 1971.205 570.174 1879.823 615.97 1785.505 621.951 1657.671 630.057 1505.174 552.523 1409.337 637.508 1316.3429999999998 719.972 1372.065 875.771 1359.796 999.455 1348.161 1116.745 1273.902 1247.103 1339.1309999999999 1345.274 1405.708 1445.474 1564.818 1410.865 1670.88 1467.6390000000001 1764.598 1517.805 1814.706 1641.62 1920 1656.2089999999998"
      fill="#1f1f1f"></path>
  </g>
  <defs>
    <mask id="SvgjsMask1239">
      <rect width="1920" height="1080" fill="#ffffff"></rect>
    </mask>
  </defs>
</svg>
